<svg xmlns="http://www.w3.org/2000/svg" viewBox="0 0 1200 360" role="img" aria-label="SEA Game ACC-A illustration"><rect width="1200" height="360" fill="#f0ede6"/><g><polygon points="472,8 472,352 728,352 730,8" fill="#777869" fill-opacity=".27" stroke="#4b5149" stroke-width="2" stroke-linejoin="round"/></g><path d="M556,52 L530,66 L516,66 L516,86 L508,96 L498,96 L500,102 L496,106 L492,100 L494,96 L486,96 L482,100 L476,118 L474,156 L482,156 L484,162 L474,164 L484,164 L488,168 L486,172 L486,164 L490,162 L490,136 L484,126 L488,120 L486,106 L492,100 L496,112 L492,114 L500,122 L500,128 L502,122 L516,122 L520,116 L522,118 L522,112 L526,114 L526,118 L530,118 L524,124 L522,132 L528,158 L528,142 L522,132 L530,130 L534,122 L538,124 L538,138 L542,150 L540,166 L542,160 L546,162 L550,158 L540,158 L542,150 L538,138 L538,122 L532,122 L526,114 L532,108 L538,116 L540,114 L524,96 L532,94 L546,112 L554,162 L550,164 L560,172 L570,194 L570,202 L576,200 L580,208 L588,212 L584,220 L586,222 L586,214 L588,212 L592,216 L596,238 L604,242 L602,246 L596,246 L590,238 L594,246 L604,248 L618,266 L684,258 L690,252 L694,256 L702,252 L694,256 L690,252 L692,244 L714,248 L716,246 L694,244 L688,232 L692,230 L708,238 L692,230 L704,220 L720,220 L724,216 L724,210 L718,200 L728,164 L728,150 L718,106 L708,104 L704,100 L700,84 L688,72 L682,72 L690,76 L676,78 L664,74 L656,80 L658,86 L652,94 L656,100 L654,104 L570,104 L566,98 L572,96 L576,90 L572,96 L566,98 L568,100 L564,104 L560,102 L624,106 L654,104 L658,108 L650,112 L558,108 L546,96 L552,90 L556,76 L562,76 L564,70 L574,70 L574,66 L580,62 L606,64 L606,80 L612,86 L606,80 L608,74 L622,72 L624,78 L620,64 L614,64 L612,70 L616,72 L610,74 L604,60 L586,60 L604,60 L604,64 L578,64 L564,52 M558,108 L618,110 L620,112 L614,118 L574,118 L574,114 L584,114 L572,114 L572,118 L616,118 L620,112 L650,112 L662,108 L668,118 L674,162 L670,166 L614,170 L586,168 L580,172 L568,172 L568,180 L570,172 L580,172 L586,168 L674,168 L672,172 L578,180 L578,186 L590,198 L592,206 L600,212 L602,208 L608,210 L602,198 L604,192 L608,194 L606,196 L612,202 L614,212 L610,232 L620,232 L622,226 L666,220 L676,222 L674,236 L668,242 L614,250 L670,242 L684,250 L684,246 L680,248 L670,242 L674,236 L680,242 L682,238 L680,240 L674,234 L674,226 L678,222 L682,226 L682,234 L682,226 L674,220 L676,216 L664,222 L628,226 L622,222 L630,216 L672,212 L672,190 L682,210 L682,216 L690,218 L692,174 L696,202 L694,216 L696,208 L704,210 L710,206 L720,206 L722,210 L716,214 L698,216 L716,214 L722,210 L724,214 L718,220 L702,220 L688,232 L692,244 L682,258 L620,266 L602,246 L604,214 L604,236 L600,240 L594,232 L590,210 L586,210 L586,200 L582,196 L576,196 L574,202 L570,200 L570,194 L558,168 L560,144 L556,128 L558,118 L568,118 L554,118 L554,114 L564,114 L554,112 M470,158 L470,174 L474,174 L478,182 L472,188 L468,178 L472,188 L468,202 L470,352 L728,350 L728,220 L728,348 L724,352 L472,352 L468,346 L468,202 L470,192 L476,188 L478,182 L476,174 L470,172 M474,4 L468,10 L470,132 L468,10 L474,4 L726,6 L728,128 L728,6 L490,4 M514,130 L506,134 L498,132 L494,150 L500,156 L500,166 L500,154 L494,150 L496,136 L500,132 L506,134 L504,138 L500,138 L506,140 L502,144 L506,140 L510,144 L506,148 L510,144 L512,146 L506,136 L510,132 L518,136 L522,150 L518,158 L520,154 L522,170 L516,174 L512,170 L504,180 L502,178 L510,182 L508,186 L488,188 L482,182 L486,176 L492,178 L494,172 L496,184 L496,176 L504,170 L508,160 L512,158 L518,162 L514,158 L508,158 L506,166 L496,174 L492,168 L494,172 L490,176 L484,176 L482,182 L488,192 L502,192 L494,190 L504,186 L512,188 L512,180 L508,180 L512,172 L516,174 L516,180 L540,176 L534,166 L530,168 L522,164 L520,138 L514,132 M662,76 L690,76 L700,86 L704,98 L696,100 L690,96 L688,90 L688,100 L684,98 L684,90 L680,98 L676,96 L684,98 L688,104 L710,104 L720,110 L728,164 L720,186 L718,208 L708,204 L716,196 L714,188 L714,194 L708,196 L708,206 L704,210 L694,200 L696,168 L686,160 L688,146 L684,144 L690,136 L694,146 L692,152 L696,150 L692,144 L692,140 L696,138 L684,132 L680,122 L682,116 L676,112 L682,106 L678,102 L674,106 L670,102 L670,88 L658,86 L656,82 M538,256 L528,284 L534,278 L530,276 L538,258 L538,282 L542,292 L536,294 L542,296 L544,302 L560,314 L580,314 L580,310 L586,306 L580,310 L580,304 L572,308 L564,306 L574,310 L576,306 L580,310 L576,316 L566,316 L552,306 L556,300 L564,302 L588,296 L598,280 L596,268 L596,284 L580,300 L564,302 L552,298 L546,292 L550,298 L556,300 L550,306 L540,294 L542,288 L538,282 L538,258 M622,272 L624,290 L618,304 L600,324 L584,334 L538,336 L520,332 L516,328 L514,334 L586,334 L614,312 L626,280 L634,282 L668,272 L700,274 L668,272 L640,278 L634,282 L628,282 L624,274 M614,124 L572,126 L572,130 L576,136 L614,132 L644,134 L630,140 L610,140 L634,140 L652,134 L658,144 L656,154 L650,154 L650,150 L644,152 L640,146 L628,152 L628,144 L622,152 L612,150 L606,158 L614,152 L634,152 L640,146 L644,152 L638,154 L648,152 L656,156 L658,144 L650,130 L650,124 L630,124 M672,166 L676,164 L686,170 L684,166 L688,164 L696,170 L694,176 L690,172 L690,214 L686,218 L682,214 L682,208 L678,206 L680,200 L684,202 L680,178 L602,184 L598,188 L594,184 L608,206 L606,210 L596,206 L594,208 L590,196 L578,184 L580,180 L586,182 L608,176 L660,172 L678,174 L676,170 M486,196 L474,208 L478,202 L482,204 L476,214 L482,212 L488,218 L488,222 L496,228 L496,238 L492,240 L484,236 L482,230 L480,238 L488,236 L496,242 L486,250 L474,250 L488,248 L512,268 L512,274 L520,276 L514,274 L512,268 L488,248 L496,242 L496,226 L488,220 L484,212 L478,210 L484,200 L488,208 L484,200 L486,196 L492,198 L492,204 L496,208 L492,196 M578,226 L580,248 L590,264 L590,280 L578,294 L560,294 L552,288 L548,276 L548,282 L544,284 L548,282 L552,290 L560,294 L578,294 L588,286 L590,264 L580,248 L580,226 L584,230 L584,244 L594,260 L588,252 L590,248 L592,250 L584,242 L582,226 M618,200 L620,198 L624,204 L670,200 L674,206 L670,212 L624,218 L620,226 L616,224 L620,226 L620,230 L612,232 L610,226 L614,212 L668,208 L624,212 L624,208 L616,212 L612,208 L614,200 M550,168 L556,176 L556,188 L550,196 L540,198 L532,206 L528,228 L530,216 L542,214 L546,210 L552,214 L550,232 L552,216 L562,212 L560,192 L562,210 L556,214 L548,210 L554,200 L554,180 L558,180 L550,170 M516,68 L518,66 L522,70 L522,78 L556,78 L552,84 L534,82 L552,86 L552,90 L544,96 L546,98 L542,102 L534,94 L520,94 L532,108 L526,112 L522,112 L516,104 L522,102 L516,104 L510,100 L516,86 L516,70 M652,94 L656,92 L666,96 L668,100 L662,102 L668,100 L680,116 L682,128 L688,138 L684,144 L688,148 L688,162 L682,166 L678,164 L682,158 L682,148 L682,156 L676,164 L672,160 L672,136 L668,116 L662,106 L656,106 L656,98 M656,180 L678,178 L682,184 L682,198 L678,200 L674,194 L678,188 L670,188 L670,196 L666,202 L666,190 L660,202 L654,200 L644,204 L626,204 L620,196 L612,192 L602,192 L598,188 L602,184 L644,180 M514,202 L510,206 L510,248 L508,250 L506,242 L502,242 L502,252 L504,248 L506,254 L508,250 L510,252 L508,258 L510,256 L522,260 L526,256 L520,260 L510,256 L510,218 L514,210 L516,214 L522,214 L520,208 L512,208 L514,204 M584,56 L636,58 L636,62 L628,62 L626,66 L654,66 L658,70 L674,70 L664,70 L656,66 L628,66 L628,62 L638,62 L638,58 L608,56 M610,282 L610,288 L600,290 L604,292 L600,296 L604,300 L604,296 L608,296 L604,292 L616,288 L616,298 L608,306 L602,304 L596,314 L588,314 L592,318 L594,314 L604,310 L604,304 L608,306 L614,302 L618,290 L616,282 L614,290 L610,288 L612,284 M554,54 L562,52 L576,62 L574,68 L566,70 L564,60 L558,60 L564,62 L564,70 L560,76 L550,76 L548,74 L556,70 L556,64 L552,60 L556,66 L548,72 L538,72 L530,66 L552,54 M700,134 L700,140 L706,144 L708,154 L712,160 L718,162 L714,166 L720,156 L722,162 L722,150 L722,154 L714,160 L714,154 L710,154 L706,148 L708,144 L716,144 L708,144 L714,136 L708,144 L700,138 L702,134 L708,134 M706,110 L702,112 L714,112 L708,118 L696,118 L708,118 L714,114 L718,128 L694,130 L686,122 L694,132 L700,128 L718,128 L716,114 L712,110 M702,148 L700,154 L694,156 L694,160 L700,164 L700,172 L714,178 L702,182 L702,192 L706,190 L702,188 L702,182 L714,180 L714,176 L700,170 L700,162 L694,158 L700,156 L700,150 M546,98 L550,104 L548,108 L554,112 L552,118 L556,120 L558,130 L558,168 L552,164 L552,140 L542,102 M574,140 L588,144 L584,156 L588,154 L584,154 L588,148 L594,154 L600,152 L600,148 L598,152 L592,152 L588,148 L592,140 L606,140 L576,140 M546,224 L538,228 L538,244 L526,268 L524,284 L524,274 L538,244 L538,228 L544,226 M488,96 L492,100 L486,106 L488,120 L484,128 L490,136 L490,148 L478,158 L474,154 L474,134 L482,102 M612,126 L648,124 L650,128 L628,134 L614,132 L578,136 L572,130 L574,126 M570,136 L574,160 L566,162 L564,156 L564,162 L572,166 L570,164 L574,160 L582,162 L574,158 L580,152 L576,152 L574,156 L570,144 M576,254 L582,272 L552,278 L582,274 L584,278 L578,256 M672,182 L664,186 L618,190 L650,188 L674,182 M522,288 L528,310 L544,326 L542,328 L548,328 L534,316 L522,294 M546,232 L548,254 L542,278 L548,254 L546,234 M616,78 L618,82 L630,86 L622,90 L630,86 L650,90 L638,86 L632,88 L620,82 M572,74 L570,78 L566,78 L572,76 L578,84 L604,84 L580,84 L574,76 M502,102 L510,100 L518,108 L520,114 L514,122 L498,120 L496,110 L504,106 L498,108 L496,106 L500,102 M550,324 L556,328 L584,328 L588,324 L584,328 L552,326 M556,226 L558,232 L554,238 L554,248 L554,238 L558,232 L566,236 L572,232 L566,236 L556,228 M544,198 L550,196 L554,200 L546,202 L550,208 L540,214 L536,212 L538,208 L534,214 L532,208 L542,198 M492,210 L490,214 L496,220 L500,212 L502,218 L506,218 L508,214 L504,218 L504,212 L500,212 L494,218 L490,214 L492,212 M650,250 L636,252 L654,250 L658,254 L674,254 L658,254 L654,250 M512,192 L504,196 L502,208 L502,200 L508,194 L508,200 L520,198 L518,192 M580,278 L576,280 L580,282 L574,288 L568,288 L566,282 L562,282 L566,284 L566,288 L574,288 L580,282 M530,182 L524,186 L524,192 L532,196 L526,202 L532,196 L524,188 M612,328 L604,336 L590,336 L604,336 L616,328 M560,80 L556,100 L558,90 L562,94 L566,92 L564,94 L560,90 M526,288 L530,300 L540,304 L532,300 L526,292 M526,166 L532,166 L538,176 L526,178 L522,170 M556,252 L556,256 L562,260 L572,258 L562,260 L556,254 M520,68 L528,66 L534,72 L530,78 L524,78 L522,70 M510,110 L506,114 L500,112 L502,118 L514,116 L512,112 M566,206 L574,214 L578,212 L576,208 L574,212 L570,206 L568,208 M558,218 L562,228 L570,228 L564,228 L558,222 M658,86 L666,86 L670,92 L664,96 L654,90 M536,70 L546,72 L548,76 L544,78 L532,74 M516,242 L518,252 L514,254 L518,254 L518,242 M516,146 L514,152 L506,154 L514,154 L516,150 M608,194 L610,192 L620,198 L612,200 L608,196 M594,296 L596,298 L592,300 L596,300 L598,306 L596,296 M482,188 L476,192 L478,198 L484,192 L480,190 M520,82 L520,90 L524,90 L526,86 L524,88 L520,84 M498,98 L510,98 L502,102 L498,100 M486,154 L490,154 L488,162 L484,160 L484,154" fill="none" stroke="#343b35" stroke-opacity=".75" stroke-width="1.45" stroke-linecap="round" stroke-linejoin="round"/></svg>