<svg xmlns="http://www.w3.org/2000/svg" viewBox="0 0 640 192" role="img" aria-label="ACC-A detailed vector artwork"><rect width="640" height="192" fill="#f3f1ec"/><path fill="#d5d6d2" fill-rule="evenodd" d="M251,3 251,187 388,187 388,3ZM299,158 308,158 304,160ZM317,148 318,151 316,152 315,150ZM315,101 315,105 313,103ZM278,37 279,35 283,36 281,38Z"/><path fill="#b1b5b0" fill-rule="evenodd" d="M251,3 251,181 253,182 254,180 260,179 263,182 275,182 277,186 279,186 279,183 281,182 282,185 285,187 309,187 314,184 326,182 332,179 338,179 339,177 337,175 343,169 344,165 347,162 352,162 358,158 353,157 351,155 353,153 381,146 383,144 382,141 387,137 388,130 386,127 375,123 372,124 370,122 374,117 385,116 387,111 386,93 388,87 388,80 386,74 387,67 385,64 388,56 388,3ZM318,144 319,151 310,160 298,161 292,157 293,155 296,157 307,157 313,153 315,144ZM286,134 287,137 285,140 284,137ZM291,129 292,132 290,140 289,130ZM290,123 292,125 289,127 288,130 287,126ZM320,116 322,117 321,126 317,123 317,118ZM332,111 334,110 340,112 333,113ZM297,107 299,106 300,109 299,110ZM289,108 290,105 294,107 290,109ZM325,105 329,104 331,106 327,108ZM308,105 311,104 313,107 309,109ZM308,96 311,95 314,98 317,97 321,102 322,109 319,109 316,112 315,107ZM346,94 324,97 318,96 321,94 333,93ZM305,57 307,55 351,57 348,59 307,59ZM273,55 275,57 273,59 271,57ZM354,55 356,54 359,58 356,59ZM291,55 292,54 297,57 293,59ZM264,57 265,54 270,55 268,58ZM283,54 288,53 291,57 291,60 287,62ZM349,48 350,46 355,47 352,50ZM279,40 281,39 283,41 281,42ZM278,36 282,35 284,38 279,39ZM307,32 315,31 324,33 310,34ZM310,27 315,24 320,24 324,22 336,28 337,30 320,31 316,29 313,30Z"/><path fill="#888e88" fill-rule="evenodd" d="M317,111 317,113 320,114 320,111ZM298,28 284,34 283,42 278,41 278,36 281,34 276,35 275,48 271,52 265,52 265,54 270,54 270,57 269,56 265,59 261,51 256,56 253,72 253,84 251,85 251,92 253,92 255,96 255,99 251,104 251,136 258,139 264,138 268,141 268,145 264,149 265,151 274,151 279,153 280,160 285,168 278,174 279,176 286,179 297,180 320,179 327,174 324,169 330,161 332,150 340,147 334,147 334,144 342,142 351,142 354,144 365,145 366,142 363,140 364,138 381,133 372,130 370,128 371,125 367,123 370,122 374,117 383,117 386,115 383,106 384,98 388,87 388,82 385,72 383,56 367,56 365,53 377,52 375,51 372,43 368,40 361,40 360,38 335,35 335,33 340,33 336,31 328,32 312,30 324,33 308,34 303,29ZM289,120 291,119 294,121 292,123 293,129 290,143 290,151 292,150 296,155 302,157 309,156 313,152 315,141 310,135 310,123 313,133 315,135 318,134 322,139 322,141 319,142 319,149 322,149 324,151 319,153 327,156 326,157 329,159 326,162 324,157 320,162 316,156 309,161 297,161 295,164 288,157 288,140 286,140 283,143 284,145 282,147 282,155 280,155 280,145 282,139 285,136ZM380,112 382,111 383,113 381,114ZM285,109 287,110 286,114 283,113ZM305,108 307,109 307,114 304,111ZM359,108 358,111 333,114 331,111 335,109 345,110 354,109 358,107ZM306,105 311,104 314,107 313,111 311,112ZM269,106 270,103 273,104 271,107ZM253,103 255,102 256,105 254,106ZM325,101 329,103 332,107 328,108 327,111 322,103ZM299,101 299,111 297,109 297,105 292,110 288,108 289,105 294,105 298,100ZM369,92 371,94 370,115 368,116 367,94ZM361,92 362,91 364,94 362,95ZM360,92 361,94 357,96 320,99 321,105 325,109 322,112 322,126 321,127 317,125 314,105 308,99 308,95 355,91ZM306,92 309,91 313,93 308,94ZM279,89 280,88 288,93 285,95 280,95ZM258,83 261,82 263,85 259,86ZM333,76 335,75 336,78 335,79ZM278,73 280,74 280,80 277,79ZM383,71 385,75 380,77 379,73ZM373,75 374,71 378,72 376,76ZM319,69 320,68 322,71 320,72ZM316,69 317,68 319,71 318,72ZM311,69 312,68 314,71 312,72ZM308,69 309,68 311,71 310,72ZM333,68 336,67 338,69 335,71ZM322,67 324,70 323,72 321,70ZM314,67 316,69 315,72 313,69ZM383,69 380,70 378,67 378,70 372,69 368,64 370,63 372,66 371,64 373,62 376,63 381,60 383,62ZM294,59 298,62 296,63 295,67 293,62ZM265,60 266,59 268,63 272,64 267,65 265,63ZM303,56 350,56 351,58 330,60 307,59ZM291,55 296,55 297,58 293,60ZM352,53 358,54 360,57 359,58 364,71 364,75 362,77 360,75 359,77 358,76 357,66 351,54ZM271,53 276,57 278,61 276,63 274,62 274,60 268,59 271,58ZM279,49 284,49 286,52 287,51 292,59 296,81 293,85 289,79 287,65 283,65 281,62 283,59 284,60 281,53 278,50ZM366,47 368,50 367,52 365,51ZM348,48 350,46 356,46 358,49 354,52ZM251,17 257,12 262,13 278,5 251,4Z"/><path fill="#5b635c" fill-rule="evenodd" d="M279,150 281,162 283,166 291,174 286,175 286,177 293,179 314,178 319,175 318,174 327,166 331,157 331,153 330,158 326,163 319,165 317,160 309,162 309,167 301,169 296,165 292,164 288,159 286,161 284,159 283,160 280,156ZM274,61 271,60 268,62ZM266,52 266,54 269,54 269,52ZM262,52 259,52 256,57 253,76 254,84 256,84 257,81 261,81 261,62 259,61 260,58 264,60 264,56 259,56 263,54ZM325,34 333,34 331,34 331,32 340,32 327,32ZM370,42 356,41 353,39 352,40 348,36 352,41 349,42 349,45 347,47 335,46 333,43 335,41 332,36 329,39 326,36 323,40 322,46 310,46 307,44 307,41 305,39 306,32 300,28 294,29 291,32 284,34 284,37 289,39 287,41 285,40 281,44 278,43 278,37 276,35 275,49 271,53 276,56 278,63 275,66 267,66 267,71 266,72 265,70 266,79 264,80 265,82 267,82 265,84 265,87 263,86 262,89 261,87 251,88 251,92 255,93 255,98 259,98 258,100 253,101 251,106 251,110 252,108 253,111 251,112 251,133 264,134 273,142 274,146 279,148 282,136 285,131 283,127 287,124 287,120 293,119 294,134 293,142 291,144 294,152 297,155 294,151 295,149 298,149 303,153 309,155 313,151 314,143 309,132 309,120 311,123 312,130 321,131 326,135 330,142 364,137 365,135 367,135 369,128 367,126 367,123 376,116 383,117 386,114 383,112 383,103 386,89 388,86 385,70 384,72 386,79 383,83 379,83 376,81 377,77 374,76 372,73 374,71 382,71 376,71 375,69 370,70 367,66 368,61 371,65 372,61 379,62 378,60 380,59 383,62 382,65 384,68 383,56 366,56 364,52 366,47 368,49 368,52 376,53 374,52 374,47ZM308,147 311,146 312,150 311,151ZM326,117 328,115 329,117 331,116 332,118 337,119 331,120ZM265,113 268,114 268,117 273,117 272,134 269,133 269,129 267,131 264,128 264,120 261,117 262,116 264,118ZM286,109 287,113 284,118 283,112ZM305,108 307,109 307,114 304,111ZM362,106 364,107 363,111 361,110ZM273,103 277,102 278,105 275,106ZM271,102 273,105 269,108 267,106ZM254,101 256,102 255,106 253,105ZM258,101 263,98 265,100 270,100 267,103 261,103ZM362,91 372,92 372,113 373,111 382,111 382,116 381,114 371,115 372,117 368,118 367,117 369,116 364,115 364,100 363,96 361,95ZM298,90 300,92 305,107 302,110 300,108 300,104 300,112 296,115 296,106 295,113 293,114 291,112 288,116 287,106 289,104 294,105 295,98 297,95 294,91ZM275,95 275,93 278,92 279,88 284,88 288,93 287,95ZM372,90 357,90 343,92 359,91 361,93 360,96 320,99 321,103 326,101 332,106 333,109 347,108 355,105 360,108 357,114 351,114 350,113 352,112 338,113 336,116 333,116 331,113 328,114 326,112 325,106 322,105 322,107 325,108 325,111 323,112 323,126 320,126 320,128 317,126 315,113 313,114 309,112 306,105 309,103 307,96 337,92 327,92 310,95 307,94 305,96 303,92 311,92 311,90 323,91 359,88 360,85 362,88 368,87ZM379,84 381,83 382,85 380,86ZM370,85 372,83 374,85ZM349,72 351,76 350,81 348,76ZM278,71 283,78 280,82 277,80ZM309,67 311,70 311,72 309,72 310,81 309,82 308,80 307,83 305,81 304,72 306,72 308,78 305,68 306,67 308,70 307,68ZM310,67 311,66 313,69 316,66 318,68 319,66 323,68 324,66 328,68 329,66 333,66 335,68 336,66 346,66 346,70 345,69 340,72 337,71 338,74 341,71 343,75 344,72 345,74 346,72 348,74 349,80 347,80 346,76 346,79 345,80 344,77 343,82 341,77 341,80 340,81 339,79 338,82 336,77 336,80 335,81 334,78 334,80 332,81 331,79 330,83 329,79 328,82 326,80 326,76 326,82 324,82 324,79 323,84 321,78 320,83 316,79 315,83 313,77 312,83 310,79 310,73 312,73 312,75ZM298,56 302,54 350,56 351,58 348,60 331,61 307,60 304,57 300,58ZM290,51 293,55 296,55 298,57 295,59 295,61 302,62 296,63 299,79 298,81 296,80 294,64 289,53ZM279,47 284,47 284,49 280,49 285,49 291,56 296,77 295,87 291,87 288,85 286,67 284,67 283,65 277,65 278,63 281,63 279,61 282,58 283,59 280,52 277,49ZM349,46 356,46 358,49 356,52 360,57 363,57 361,59 365,68 364,74 364,72 366,72 364,83 360,83 358,80 358,73 355,61 348,51 350,50 348,48ZM292,40 293,38 297,39 294,41ZM300,31 302,33 300,36 301,38 298,41 296,37 298,36 296,32Z"/><path fill="#2e3934" fill-rule="evenodd" d="M330,158 323,167 315,170 295,170 291,166 286,166 285,168 293,175 293,177 313,177 325,168ZM289,169 292,168 295,172 311,174 304,176 297,175 290,172ZM362,137 347,137 331,141ZM294,127 293,143 294,140 295,147 311,145 307,135 305,135 306,136 303,139 297,137 295,134ZM258,113 252,114 251,133 263,132 264,130 264,120 263,121 260,118ZM271,108 269,116 271,113ZM303,101 307,109 305,105 306,104ZM373,118 366,121 361,114 361,108 359,106 359,102 362,100 361,91 355,91 359,91 361,93 358,99 327,102 332,106 332,108 354,106 355,101 357,100 357,106 361,108 358,114 333,117 337,118 358,115 359,116 357,118 332,120 330,124 326,125 326,110 326,113 323,117 322,129 316,125 315,114 312,117 310,117 308,114 306,115 303,112 301,112 298,117 297,115 295,115 295,110 295,125 297,123 299,125 304,125 308,133 309,131 307,124 309,119 313,121 313,125 317,130 321,130 325,134 352,129 359,129 365,132 367,130 367,123ZM362,118 364,119 363,125 365,126 363,130 362,127 359,126 359,120ZM251,89 251,91 255,93 256,98 258,96 260,99 262,99 258,96 258,93 259,92 262,95 263,90 258,88ZM272,70 269,72 265,72 267,73 268,71 270,73 270,77 266,77 268,78 267,85 269,88 268,91 265,93 264,97 265,100 272,99 273,101 269,103 264,103 262,107 266,113 268,111 268,103 278,101 283,104 282,106 281,105 279,107 276,107 273,110 273,138 279,138 283,135 283,125 286,122 287,114 286,119 284,121 283,120 284,109 289,104 294,104 295,92 290,91 286,97 280,98 279,102 278,96 276,97 274,95 275,92 278,92 278,83 276,85 273,84 273,80 275,78 276,79 277,73 274,70ZM272,93 274,95 271,97 270,95ZM272,81 273,82 270,84 269,83ZM270,78 272,77 273,80 272,81ZM286,68 285,75 287,81 285,86 282,88 286,88 287,90 288,87ZM283,66 281,66 279,69 280,70 278,71 283,70ZM353,58 347,61 330,61 329,63 300,63 297,69 299,76 299,91 302,98 302,93 304,91 310,91 313,89 315,91 359,88 358,81 354,77 353,68 356,65ZM298,70 301,70 299,66 302,64 307,67 320,67 344,64 351,75 352,81 348,83 347,82 346,84 344,83 344,81 343,85 342,83 341,85 334,84 333,86 331,83 330,86 329,84 325,86 324,83 323,86 320,86 319,83 318,86 315,86 314,84 313,86 311,84 311,81 310,87 308,81 307,85 304,82 304,72 305,71 307,74 304,67 304,72 301,72 300,74ZM295,60 303,61 304,59 298,58ZM381,57 380,58 383,61 382,65 384,68 383,59ZM369,58 369,62 371,58 374,62 374,60 376,62 378,61 376,59 378,58 377,57 372,57 370,59ZM364,57 364,66 366,72 368,73 366,75 368,80 367,83 365,83 365,86 362,88 367,86 372,89 372,110 377,111 377,107 380,104 380,109 383,110 383,99 378,104 374,103 374,97 378,95 377,94 376,96 375,92 375,95 372,95 373,87 370,85 373,83 373,78 375,77 372,76 372,72 375,70 369,70 368,67 364,64 366,63 366,58ZM370,73 372,75 372,80 370,79ZM283,58 280,54 276,55 277,59ZM261,54 257,56 255,61 254,84 256,84 256,82 259,81 261,77 261,72 258,69 258,66 261,65 259,64 259,56ZM350,43 350,45 358,47 359,49 357,53 360,56 362,55 361,53 364,51 366,47 368,49 368,52 376,53 372,52 372,49 368,44 353,41ZM285,41 286,44 296,46 296,49 294,51 291,51 293,55 296,55 296,48 298,46 300,50 303,50 302,51 304,55 310,52 325,52 331,55 350,54 347,48 331,48 331,44 325,40 325,47 310,47 307,48 305,51 303,50 306,43 304,40 300,41 298,44 296,43 296,41ZM276,37 275,41 277,42 277,44ZM306,32 303,30 296,30 284,34 285,38 295,38 296,33 295,34 294,32 296,30 299,30 302,32 301,36 303,38 305,37Z"/></svg>