<svg xmlns="http://www.w3.org/2000/svg" viewBox="0 0 640 192" role="img" aria-label="FP-B detailed vector artwork"><rect width="640" height="192" fill="#f3f1ec"/><path fill="#d5d6d2" fill-rule="evenodd" d="M238,183 238,187 275,187 275,183ZM238,4 237,36 239,41 238,45 240,63 245,58 249,57 256,49 258,49 259,47 263,47 268,49 272,53 278,53 287,56 289,60 302,65 301,68 297,65 286,65 284,67 270,65 268,67 267,72 253,72 247,75 247,106 251,109 263,111 279,110 280,127 284,127 287,129 296,129 297,133 294,136 290,135 288,137 285,151 263,150 240,145 238,151 239,169 271,167 275,169 280,169 286,174 298,174 304,172 333,176 394,176 396,164 396,149 394,147 367,148 357,150 353,148 352,137 349,135 346,136 341,133 346,132 348,130 353,130 359,126 364,126 365,128 373,128 376,126 382,126 384,124 384,102 387,100 387,92 385,91 385,86 387,85 388,80 388,67 385,62 385,59 380,54 380,52 372,46 363,44 352,44 346,48 335,47 330,52 320,49 319,46 311,46 310,48 304,51 293,47 287,48 279,45 276,42 267,42 265,40 273,36 276,32 286,32 291,30 303,29 329,30 344,27 354,32 365,33 368,36 371,36 381,41 386,49 389,49 394,54 396,38 396,5ZM318,94 320,95 319,99 317,98ZM300,70 304,71 302,76 297,73ZM279,69 281,71 279,73 277,71ZM361,51 365,52 373,62 374,69 376,71 375,80 373,82 365,80 365,68 360,67 357,63 360,61 359,53ZM257,45 258,47 256,49 255,47Z"/><path fill="#b1b5b0" fill-rule="evenodd" d="M238,33 238,40 267,48 270,52 273,53 276,52 285,55 289,58 289,60 300,63 302,65 301,68 295,65 288,65 281,68 278,68 275,65 269,66 267,72 255,72 247,75 247,106 251,109 261,109 263,111 279,110 280,127 297,130 296,135 290,135 288,137 285,152 284,150 282,150 280,153 276,155 269,156 278,160 282,159 284,161 312,161 324,163 380,160 390,158 383,155 358,153 356,150 352,148 353,145 351,137 349,135 344,136 341,133 348,130 353,130 359,126 364,126 365,128 373,128 375,126 382,126 384,124 384,102 387,99 387,92 384,90 387,84 386,81 388,79 388,72 385,60 378,50 369,45 354,44 349,45 346,48 333,48 331,52 321,50 319,46 311,46 310,48 303,51 296,48 290,49 280,46 274,42 269,43 253,38 246,34ZM318,94 320,95 319,99 317,98ZM323,94 325,92 329,94ZM346,76 351,75 353,77 348,78ZM297,73 300,70 303,70 305,72 302,76ZM277,70 280,69 281,71 279,73ZM304,55 306,54 310,56 306,57ZM360,51 365,52 370,57 375,66 374,68 376,71 376,76 374,82 365,80 365,69 360,67 357,63 360,61ZM297,51 298,50 300,53 298,54Z"/><path fill="#888e88" fill-rule="evenodd" d="M238,33 238,40 267,48 270,52 273,53 276,52 288,56 289,60 303,65 302,68 293,65 285,66 284,68 278,68 275,65 271,65 269,67 268,72 274,72 278,69 281,69 281,72 273,76 264,75 263,74 265,72 252,73 247,75 247,106 252,109 261,109 267,111 275,111 279,109 280,127 298,130 298,133 296,135 289,136 288,141 286,143 286,151 285,152 284,150 282,150 278,154 278,157 289,160 319,162 342,161 351,159 355,160 359,158 360,154 356,150 352,149 351,137 349,135 344,136 341,133 350,129 354,129 358,126 373,128 375,126 382,126 384,124 384,102 387,99 387,93 384,90 387,84 386,81 388,79 388,72 386,64 384,62 385,60 380,54 380,52 368,45 354,44 346,48 336,47 331,52 319,50 319,46 317,46 316,48 311,46 307,49 305,53 295,48 289,49 282,46 277,47 277,43 274,42 271,43 273,44 272,46 267,45 257,40 250,39 250,36 248,35 242,36ZM291,137 292,138 290,141 289,138ZM296,101 295,103 288,102 295,100ZM325,99 326,100 323,103 322,101ZM353,76 352,78 348,79 345,76 344,78 343,76 344,80 337,95 320,95 320,98 318,100 316,98 316,94 320,93 324,85 329,87 330,90 335,88 337,85 336,79 334,81 332,80 332,74 348,73ZM300,70 305,71 303,75 305,76 304,81 301,79 301,76 297,73ZM282,70 284,69 286,72 285,73ZM335,65 336,63 339,64 336,66ZM376,62 382,61 385,63 378,64ZM336,62 334,65 330,64 333,61ZM375,58 380,57 382,59 377,60ZM372,54 375,53 376,55 375,56ZM309,53 312,52 316,58 314,59 313,56 310,58ZM300,54 302,52 310,56 306,57ZM360,51 365,52 372,59 376,70 374,82 365,81 365,69 360,67 356,63 360,61ZM334,52 335,49 340,51 338,53ZM296,50 298,49 300,53 298,54ZM278,47 285,47 295,52 292,53 280,49Z"/><path fill="#5b635c" fill-rule="evenodd" d="M335,81 330,84 332,87 330,89 333,88 333,83 336,84ZM238,33 238,40 247,43 250,42 267,48 273,53 277,52 289,57 290,60 301,63 303,65 302,68 290,65 292,67 290,76 288,78 286,76 288,74 289,67 288,69 286,67 278,68 276,66 273,66 272,72 269,70 271,69 271,65 268,72 274,72 278,69 281,69 281,72 273,76 247,76 247,106 252,109 261,109 268,111 275,111 273,109 274,107 279,109 280,106 283,106 284,109 280,111 279,125 281,127 285,127 288,129 298,130 298,134 295,136 291,135 286,143 287,150 285,152 283,150 283,155 281,157 278,155 278,157 282,159 306,161 341,161 360,157 356,154 356,150 352,150 352,142 351,151 350,147 348,150 344,147 343,139 348,138 351,140 351,137 349,135 344,136 341,132 347,131 349,129 354,129 359,125 364,126 366,128 373,128 374,126 381,126 384,124 384,101 386,100 386,92 383,91 387,84 385,81 387,80 388,74 382,74 378,72 381,70 387,71 387,68 385,66 386,64 378,64 376,62 377,60 384,62 384,60 377,60 374,57 382,57 380,53 371,52 371,50 377,50 367,45 366,46 355,44 345,48 345,56 343,57 343,55 338,55 342,52 342,50 339,53 334,52 334,50 337,48 333,49 333,52 330,53 326,51 317,50 316,49 319,48 319,46 317,46 314,49 312,46 307,49 306,53 307,55 306,52 310,50 316,56 316,59 314,60 312,58 308,58 298,54 294,48 292,48 295,52 294,53 288,52 276,47 273,42 271,43 274,45 272,47 251,40 246,37 247,35 243,35 242,37ZM324,156 330,155 331,157 325,158ZM317,154 316,155 313,152 304,151 297,144 297,139 317,137ZM290,137 294,139 292,141 293,143 291,152 293,153 291,155 287,151 287,148 290,147ZM309,129 312,126 317,127 315,130ZM288,120 287,123 282,121 287,119ZM297,109 317,108 318,110 316,112 315,110 310,111 314,114 311,116 311,119 316,117 315,115 318,112 319,113 319,125 312,126 307,123 304,128 297,129 297,127 303,124 301,122 297,124 293,122 293,120 297,117ZM335,108 335,113 330,121 330,124 336,127 328,128 322,124 322,126 320,127 319,112 328,110 332,107ZM309,106 315,106 312,108ZM379,103 381,107 380,111 378,110ZM374,102 378,104 375,118 377,121 375,124 373,122ZM288,102 290,100 296,101 295,103ZM374,92 384,92 385,93 383,94 385,95 385,98 383,100 377,100 376,98 375,100ZM290,87 291,90 286,101 282,103 281,101 284,99 284,95ZM257,89 259,87 262,88 261,91ZM376,87 378,86 380,88 378,89ZM300,84 301,87 298,89 296,87ZM371,81 373,83 371,85 369,83ZM268,78 274,79 274,103 271,106 267,106 264,103 264,101 261,100 256,94 257,91 259,93 263,92 262,82ZM300,70 304,70 306,72 305,75 308,77 305,79 304,82 300,80 301,77 297,73ZM332,70 332,74 339,74 339,71 343,69 344,74 353,74 353,76 355,75 357,78 355,93 357,95 354,95 353,98 354,121 351,124 351,126 346,129 343,126 343,94 320,95 320,98 324,98 322,100 325,97 326,98 325,106 319,103 316,104 314,102 316,100 319,101 316,98 316,94 320,93 325,82 324,79 330,77 328,78 327,75ZM282,70 284,69 287,72 285,74ZM353,67 355,66 357,68 355,69ZM377,66 384,65 386,67 384,69 379,68ZM334,65 340,62 346,64 347,69 343,69 342,67 345,66 342,66 341,70 339,66 335,67ZM328,64 331,61 339,62 336,63 333,67ZM372,54 378,53 381,55 374,56ZM358,51 363,51 367,53 372,59 376,70 374,82 365,82 365,69 362,68 361,71 357,69 358,64 356,63 359,61 359,54 357,53ZM367,48 368,47 375,49 368,50Z"/><path fill="#2e3934" fill-rule="evenodd" d="M347,155 355,154 356,152 355,150 352,152 349,149 349,152 350,151 351,154ZM289,138 287,142 289,143 286,144 287,155 289,155 289,152 287,151 287,147 290,146ZM318,104 317,107 319,108 319,110 317,112 319,112 319,129 299,130 300,133 298,134 301,136 297,137 318,138 319,142 317,157 319,157 320,160 313,161 338,161 328,161 323,158 326,153 331,157 335,157 335,154 331,152 333,150 331,142 336,139 339,139 341,142 341,155 339,156 345,156 344,152 347,149 343,145 343,136 341,137 341,134 337,133 340,131 346,131 343,131 338,128 320,128ZM326,151 328,150 329,153 328,154ZM320,140 323,141 322,147 319,145ZM302,136 305,135 308,131 312,133 311,135 316,136 314,138 307,138ZM328,98 325,103 327,105 325,108 328,108 330,105ZM334,67 333,74 337,74 340,68 339,67 338,70ZM273,67 273,71 278,69 284,69 274,69 273,68 276,66ZM365,48 365,50 366,49 368,51 368,55 374,62 376,77 375,82 372,86 366,82 366,84 360,83 357,85 357,126 363,125 366,128 372,128 374,123 374,92 383,92 385,89 377,90 376,87 384,87 386,85 385,81 387,79 379,79 378,76 380,74 385,76 387,74 380,74 378,70 387,69 379,69 377,67 378,65 385,64 378,64 375,61 384,60 373,59 374,56 382,56 374,56 372,53 368,51 369,50ZM364,107 366,109 365,122 363,119ZM378,84 379,81 383,81 386,83 384,85ZM239,40 268,48 272,52 277,52 293,58 293,61 305,65 305,70 300,69 297,66 291,68 290,77 294,78 293,81 292,79 290,79 290,81 288,82 286,80 286,74 278,73 274,76 274,106 279,109 279,101 285,88 291,85 292,88 286,100 290,99 292,101 295,100 303,102 313,102 312,104 296,103 295,105 289,105 287,102 285,103 285,108 280,114 285,114 286,112 287,113 288,126 289,114 291,111 290,110 293,107 302,107 300,106 301,105 315,105 313,103 315,101 314,100 316,98 316,94 319,93 322,88 314,87 323,86 325,81 324,79 327,76 328,71 332,69 329,66 328,68 325,68 325,66 330,61 332,61 329,60 327,54 328,53 331,54 335,60 341,63 350,65 346,64 353,61 355,62 355,66 357,68 354,69 352,66 351,68 347,67 344,74 355,74 357,80 357,75 361,74 357,70 358,64 357,65 355,63 359,61 359,58 357,57 357,52 361,51 363,46 360,46 359,50 356,49 349,51 348,49 348,53 347,54 345,52 344,57 337,55 340,52 334,55 325,51 328,53 324,54 318,51 318,54 322,55 327,59 325,62 321,63 316,59 315,61 313,61 310,58 308,59 306,57 298,55 296,51 293,49 295,51 294,53 276,48 273,43 273,47 247,39 246,36 244,36 244,38 241,37ZM303,89 304,90 301,99 299,96 301,90ZM301,84 302,86 298,89 296,87 299,84ZM296,73 300,69 302,69 307,72 305,75 309,75 308,79 310,75 313,76 314,79 317,75 318,78 316,81 305,80 304,85 300,82 299,79 301,77ZM354,53 357,54 356,60 351,58 351,55Z"/></svg>