<svg xmlns="http://www.w3.org/2000/svg" viewBox="0 0 640 192" role="img" aria-label="SE-R detailed vector artwork"><rect width="640" height="192" fill="#f3f1ec"/><path fill="#d5d6d2" fill-rule="evenodd" d="M365,8 364,37 362,39 357,38 352,33 353,9 352,33 350,38 347,36 347,33 344,33 342,37 331,36 329,30 329,17 329,30 328,35 326,37 318,37 320,35 323,35 324,25 316,24 314,26 291,31 300,31 300,37 303,39 302,41 292,41 291,36 290,42 283,44 281,46 280,39 280,44 275,49 272,49 272,44 268,43 269,48 267,50 266,49 266,53 264,54 263,51 261,51 261,56 263,59 262,62 265,67 266,80 264,81 264,85 261,86 261,94 264,95 262,97 262,111 267,113 268,116 266,120 269,120 271,122 261,125 262,151 264,153 263,155 268,157 270,161 278,161 281,165 286,164 288,168 298,173 290,179 299,178 300,176 298,175 301,174 302,176 307,177 304,180 305,182 315,181 318,183 379,183 379,165 371,161 370,148 373,147 375,143 379,116 373,113 365,113 359,110 350,110 343,107 353,104 379,105 379,71 372,70 375,67 377,47 375,39 367,39 365,37ZM347,177 350,176 351,178 350,179ZM298,157 303,156 310,160 308,163 299,159ZM332,121 334,123 332,136 330,137 330,126 325,123ZM277,110 281,109 284,111 281,112ZM352,103 350,105 331,106 337,107 335,112 325,111 323,108 326,102 335,103 346,101 349,99ZM349,92 351,97 350,98 347,97 347,94ZM297,90 298,91 295,94 293,92ZM311,90 314,89 315,91 313,92Z"/><path fill="#b1b5b0" fill-rule="evenodd" d="M365,9 364,38 362,40 352,35 353,9 352,34 350,38 347,36 346,33 342,38 331,36 329,34 329,17 329,34 327,37 318,37 319,35 323,34 324,28 323,25 317,24 314,26 305,27 303,29 291,31 301,31 301,37 305,38 302,41 291,41 282,46 280,45 273,50 271,48 272,44 268,43 269,50 266,50 264,57 261,51 263,59 262,62 265,66 266,81 264,82 264,86 261,87 261,94 263,94 265,97 262,98 262,111 267,112 268,120 274,122 262,124 262,151 265,156 276,161 286,162 288,168 321,183 379,183 379,176 372,177 369,175 372,173 379,174 379,170 372,166 376,164 372,166 371,165 370,148 373,147 375,143 379,117 372,113 364,113 358,110 348,110 346,108 337,108 335,114 305,119 285,114 284,112 275,111 271,108 285,106 288,111 295,112 297,114 318,115 332,112 324,113 322,111 324,110 323,108 325,106 323,104 326,102 339,102 350,99 352,102 357,103 355,104 361,104 360,103 362,95 363,105 379,104 379,71 372,70 375,67 377,50 376,42 374,39 365,38ZM356,181 359,178 366,180 361,183ZM366,180 369,177 371,179 369,181ZM342,176 345,174 352,176 361,176 353,180 347,179ZM378,170 367,175 364,174 368,171 371,171 374,168ZM296,157 308,154 310,160 344,174 342,176 339,176 312,165 310,163 297,159ZM288,154 294,152 299,155 292,157ZM302,151 305,150 308,152 305,154ZM288,148 292,146 296,148ZM302,145 305,144 306,146 303,147ZM289,128 280,128 286,126ZM267,126 272,125 274,127 271,128ZM275,124 279,123 283,125 276,126ZM325,122 334,122 331,137 329,136 329,125 326,125 324,123ZM270,112 272,111 273,113 271,114ZM273,101 282,101 278,103ZM303,96 307,93 312,95 310,97ZM304,92 305,93 303,96 301,94ZM348,91 350,92 350,99 347,97ZM346,91 347,97 345,100 343,98 344,92ZM297,90 298,91 294,94 293,92ZM305,90 319,90 313,93 311,91ZM299,88 303,87 305,89 301,90ZM337,82 339,81 340,83 338,84ZM270,82 277,82 275,84ZM348,69 350,68 352,70 349,71ZM360,62 361,59 364,61 362,63ZM371,55 375,54 376,57 372,58Z"/><path fill="#888e88" fill-rule="evenodd" d="M339,180 339,183 344,183ZM379,176 374,177 370,181 360,183 377,183 379,180ZM316,171 316,179 320,179 327,183 332,183 332,177ZM379,170 352,180 352,182 359,178 368,178 370,177 368,175 369,174 377,174ZM295,162 295,169 309,175 309,167 301,166 299,163ZM273,111 271,120 274,120 279,123 278,119 273,116 279,116 279,114ZM379,117 372,113 363,113 357,110 352,111 347,110 345,108 337,108 336,113 334,115 306,119 306,122 318,121 319,122 316,124 296,126 296,123 302,123 301,118 294,117 294,120 291,121 290,115 283,114 283,118 281,119 282,124 286,123 289,125 286,126 292,125 296,127 290,129 276,130 262,125 262,132 265,134 264,137 262,136 262,151 264,155 274,160 286,161 288,163 287,167 288,166 289,168 290,160 289,157 289,160 287,160 287,154 295,152 299,155 297,156 303,156 305,154 308,154 310,160 345,174 360,175 365,171 369,171 374,168 370,165 371,150 369,148 372,147 375,142ZM345,153 346,151 350,152 346,154ZM339,151 342,150 345,152 342,153ZM309,150 307,154 300,154 297,152 299,150ZM287,148 290,146 295,146 298,148 292,150ZM309,145 307,147 299,149 298,148 299,146 301,146 301,144 307,143ZM275,136 277,138 276,141 273,140ZM266,129 270,128 274,130 270,131ZM369,126 370,127 367,130 365,128ZM363,123 368,122 369,125 368,126ZM350,125 351,122 354,124 351,126ZM334,137 329,137 329,126 304,130 300,128 309,125 319,125 322,122 333,121 334,126 332,135ZM288,122 294,121 295,123 289,124ZM364,119 369,118 370,120 369,121ZM283,119 287,118 290,120 286,121ZM323,117 326,116 329,118 326,119ZM351,117 352,114 356,116 352,118ZM263,99 263,111 269,113 268,105 271,102 267,102 268,111 266,112 265,108 265,110 263,110ZM376,42 374,41 374,39 365,38 364,29 364,38 362,40 354,37 352,35 352,20 352,35 350,38 345,33 342,38 331,37 329,35 329,18 329,35 327,37 318,37 319,35 323,34 323,25 317,24 314,26 310,26 309,29 300,29 298,30 303,32 301,33 301,37 304,37 305,39 298,42 293,41 297,44 296,45 289,46 288,45 292,43 286,43 285,45 280,45 277,48 277,50 272,50 271,44 268,44 270,51 268,52 266,50 267,53 265,54 264,58 262,57 263,54 261,53 263,59 262,61 266,69 266,81 264,82 264,86 261,87 261,94 265,96 265,99 282,99 283,102 280,103 280,106 285,106 288,111 294,111 302,113 304,115 315,115 324,113 322,112 323,109 321,107 324,106 323,104 326,102 342,101 343,91 345,89 348,90 347,99 347,91 349,90 350,96 352,98 351,100 353,102 357,102 360,104 361,96 363,95 364,104 379,104 379,102 377,101 379,100 379,94 364,93 379,92 379,90 361,89 379,88 379,83 363,82 379,80 361,79 379,78 379,72 375,71 375,74 359,75 357,73 361,70 363,72 365,69 372,70 374,68 376,59ZM314,109 315,108 321,110 315,111ZM306,106 308,108 307,112 305,108ZM296,106 298,105 300,107 297,108ZM300,97 301,96 302,100 305,100 307,102 301,102ZM288,97 292,96 294,98 291,100ZM283,94 286,93 289,96 287,97ZM291,91 299,91 295,94 293,94ZM320,89 321,90 317,94 316,92 314,93 314,96 311,98 309,103 307,102 307,98 300,95 304,91 309,92 305,91 305,89ZM298,88 308,88 304,90 300,90ZM336,83 339,81 341,84 337,85ZM296,82 283,82 280,85 267,82 272,80 290,79 291,81ZM348,69 358,68 360,71 357,73 350,72ZM359,60 363,59 364,63 361,64ZM306,56 308,55 309,57 307,58ZM272,54 273,57 270,60 269,56ZM370,52 373,51 373,54 375,54 376,57 371,58ZM287,50 289,55 283,56 282,55ZM291,49 293,48 294,50 292,51ZM320,40 329,38 330,42 329,43 328,40Z"/><path fill="#5b635c" fill-rule="evenodd" d="M374,180 367,183 374,183ZM339,180 339,183 344,183ZM367,175 362,178 367,178ZM316,171 316,178 331,181 330,176ZM295,162 295,169 300,169 309,173 308,167 301,167 299,163ZM311,119 311,121 319,121 319,118ZM352,118 355,120 368,122 367,120 354,117ZM289,121 301,121 301,119 294,117 293,121ZM324,118 324,120 332,120 332,116 327,116 329,118 328,119ZM271,116 271,120 277,121 275,117ZM283,114 283,117 289,118 289,115ZM273,111 273,114 279,116 279,114 276,114 275,111ZM379,118 370,113 365,114 360,111 359,113 357,113 354,111 356,110 349,111 343,108 337,109 332,134 334,137 333,138 329,137 329,126 305,130 299,128 301,126 304,126 297,126 292,129 277,131 274,129 273,131 265,129 264,130 262,128 262,131 264,133 272,136 268,136 267,138 265,135 263,137 263,145 264,148 266,148 266,150 263,151 265,155 269,155 273,159 279,161 286,159 287,152 290,153 286,151 287,147 308,143 308,147 292,150 292,152 299,154 299,156 300,154 295,152 295,150 308,149 309,152 305,154 308,154 311,160 349,175 356,174 370,167 371,151 368,148 374,145ZM322,154 323,153 331,157 329,158 323,156ZM326,150 328,148 331,149 328,151ZM266,148 267,147 271,152 268,152ZM351,146 354,145 364,149 362,151 355,150ZM277,143 277,158 275,152 275,145ZM329,144 333,143 333,141 340,141 340,144 335,144 332,147 350,152 347,153 347,156 341,152 339,154 336,152 338,151 333,152ZM315,142 321,141 323,144 320,145 316,144ZM308,142 310,141 312,143 309,144ZM326,142 328,141 328,139 331,140 330,143ZM324,139 327,141 325,144 321,141ZM368,136 369,137 367,142 366,137ZM314,136 317,134 321,135 317,137ZM298,135 302,135 300,137ZM362,133 364,136 362,142ZM357,132 360,134 357,141ZM277,131 278,137 277,141 275,142 271,137 273,135 276,136 275,132ZM340,121 341,126 340,133 338,135 337,131ZM351,114 352,113 353,115 366,118 370,117 370,120 372,121 369,124 371,125 367,130 364,128 351,126 351,122 362,126 368,126 366,124 358,122 350,122 349,121 351,120ZM265,83 265,85 268,86 268,84ZM268,44 270,47 270,52 274,52 270,48 271,44ZM373,40 370,39 368,41 368,53 366,53 366,56 364,57 363,54 359,53 362,45 366,43 361,44 359,40 360,39 356,39 352,36 352,27 351,37 355,38 345,39 345,43 349,42 350,44 345,45 344,59 341,60 340,51 342,49 341,45 343,43 343,41 340,40 341,39 337,37 327,37 318,39 331,39 328,64 331,67 328,68 322,75 319,73 317,61 305,61 302,63 295,62 295,55 297,53 296,48 298,47 297,45 295,47 290,47 288,60 290,60 292,63 290,72 286,73 284,63 280,61 280,45 280,49 276,50 276,52 278,51 280,54 275,54 274,61 266,62 266,80 292,80 294,78 293,71 295,69 298,69 300,77 298,87 323,89 326,91 325,93 327,95 325,97 322,94 323,92 322,94 319,94 318,92 318,95 313,95 314,96 311,102 316,106 315,107 310,106 307,103 304,104 299,100 299,95 304,90 301,90 301,93 299,95 296,94 296,97 294,97 295,98 291,100 283,95 284,93 287,93 289,96 293,95 292,93 286,91 295,89 295,85 291,85 290,83 288,85 281,84 280,87 279,84 275,86 273,85 273,87 276,85 277,86 277,98 273,98 273,90 271,90 271,93 268,96 268,89 269,90 267,89 266,97 271,98 268,96 271,94 272,91 273,99 282,99 287,104 289,111 306,113 306,110 303,106 306,105 309,108 309,112 306,115 322,113 322,111 314,112 313,109 321,108 322,105 324,106 322,105 324,102 335,102 343,100 343,91 336,93 334,91 336,90 329,90 327,88 332,84 335,84 339,80 341,84 340,85 345,86 346,81 350,80 355,82 351,83 350,85 348,83 348,85 351,88 351,96 354,100 352,101 354,101 355,98 360,101 361,96 363,95 364,104 371,103 365,102 365,100 374,100 375,102 379,99 379,94 361,93 379,92 379,90 360,89 379,88 379,86 361,85 379,83 361,82 379,80 361,79 379,78 379,74 359,75 347,71 343,68 347,67 353,69 357,65 359,69 362,69 362,72 365,69 372,70 374,67 371,67 369,65 371,63 375,63 376,56 375,58 371,58 370,52 376,52 376,50 371,50 369,45 371,43 370,41ZM301,105 300,109 293,107 294,105ZM324,100 326,99 327,101 325,102ZM325,92 329,90 335,92ZM289,88 288,90 284,89 288,87ZM353,87 357,86 358,88 357,89ZM306,81 307,80 311,82 312,85 308,87 306,85ZM280,73 281,76 279,78 278,74ZM311,67 313,69 313,76 309,81 307,77 310,72 309,68ZM343,64 347,63 348,65 345,66ZM272,62 274,65 274,75 271,69ZM369,61 372,60 373,62 370,63ZM329,61 331,60 332,62 330,64ZM352,62 353,59 355,61 353,63ZM351,56 354,55 355,57 352,58ZM361,54 365,58 363,65 359,64ZM292,48 294,49 293,54 290,53ZM323,25 317,25 320,32 315,35 312,34 312,30 310,27 311,28 309,30 307,28 299,30 304,30 306,32 306,35 301,37 304,37 306,39 318,37 315,36 323,34 323,30 321,31 319,29 319,27Z"/><path fill="#2e3934" fill-rule="evenodd" d="M374,181 368,183 374,183ZM286,148 281,149 280,157 278,159 279,160 282,160 286,157ZM333,147 344,151 349,151 351,154 355,153 355,151 360,151 354,150 354,152 351,152 337,147ZM367,149 366,146 359,147 363,148 364,150ZM307,143 312,149 315,150 314,152 311,152 314,152 316,157 313,160 311,158 311,154 311,160 337,169 346,174 356,173 360,170 367,169 370,166 370,151 367,153 365,152 359,154 358,157 357,155 352,156 350,158 346,156 338,157 337,154 330,151 327,154 324,148 320,150 320,148 316,146 313,147ZM336,163 342,163 344,169 337,169 335,166ZM347,158 349,159 348,171 345,170 345,160ZM339,159 341,158 343,160 340,161ZM336,157 337,156 339,159 337,160ZM318,154 321,152 332,156 333,165 331,166 323,162 319,162ZM332,141 340,141 342,143 339,145 337,144 338,145 341,145 344,142 350,145 347,148 350,148 349,147 351,144 357,146 355,145 357,144 354,143 355,144 353,145 350,144 350,142 348,141 343,142 334,139ZM282,133 281,135 282,137 284,137 286,134ZM376,131 372,146 374,145ZM297,131 298,134 296,136 296,145 299,145 303,143 303,136 300,131ZM299,139 299,136 297,135 301,134 301,138ZM291,131 289,133 293,138 293,133ZM329,129 326,131 321,130 323,133 325,133ZM308,129 306,134 314,140 313,134 312,136 308,132ZM352,122 355,124 368,126 365,124ZM352,118 368,122 367,120ZM296,118 296,120 301,120 299,118ZM312,110 311,114 314,114 315,112ZM338,109 333,135 337,135 336,134 340,119 339,116 342,114 342,121 343,116 346,114 347,120 344,136 343,137 341,135 343,129 341,124 339,136 345,138 347,136 347,129 349,127 348,125 350,124 348,124 347,122 349,119 350,120 349,117 351,116 349,115 351,113 357,116 367,118 371,117 372,119 370,120 372,121 369,124 371,125 368,128 370,130 369,131 363,128 351,126 349,134 349,139 351,139 353,131 355,133 353,140 356,141 356,133 359,130 361,133 359,135 358,141 360,143 365,143 366,132 368,131 370,134 368,135 369,137 367,144 370,145 372,137 371,132 373,130 375,117ZM364,133 365,136 362,143 361,134 362,133 363,135ZM360,131 361,129 366,130 364,132ZM354,126 357,128 355,131 352,130ZM322,94 314,95 315,98 313,98 313,102 314,101 316,105 319,105 324,101 322,97 323,96 321,96ZM320,95 322,99 319,103 316,103 315,98 319,97ZM284,97 284,99 286,99 286,101 284,102 291,104 290,110 301,111 303,105 308,105 310,109 313,108 311,108 307,104 299,102 299,96 296,94 296,102 293,102 292,104 288,101 290,99 286,99ZM298,102 302,105 301,109 299,110 296,108 294,110 293,106 295,104 296,105 295,104ZM343,91 333,94 328,93 328,101 342,100ZM360,91 360,95 362,94 367,99 374,99 374,97 379,97 379,94 360,93 379,92 379,90ZM358,81 355,83 351,83 351,94 354,88 358,89 353,87 355,85 358,86ZM273,76 272,80 275,80 275,77ZM274,62 274,65 275,63 276,64 275,70 275,68 280,64 283,66 285,71 285,76 283,79 288,80 290,73 285,72 284,64 280,62ZM266,65 271,64 272,62 267,62ZM293,61 294,65 297,65 301,71 302,79 300,87 307,87 304,85 303,82 303,72 305,69 303,63 296,63 295,61ZM295,54 293,54 292,56 291,55 290,58 292,57 294,59ZM369,50 367,65 370,55ZM281,49 277,50 280,51 280,54 276,54 276,56 280,57ZM296,46 290,47 290,52 293,47 296,50ZM359,41 353,40 352,42 345,42 349,42 351,44 345,45 347,53 344,55 344,59 342,61 339,60 341,44 339,43 341,39 338,43 335,43 335,47 338,48 336,49 336,60 338,61 338,63 341,63 343,67 341,69 343,70 341,77 339,76 337,70 332,75 320,75 317,61 311,61 317,73 317,81 311,88 319,89 323,84 327,82 329,84 334,84 338,80 342,85 346,85 346,81 349,80 349,77 353,75 343,68 346,66 345,67 342,64 342,62 346,61 348,66 356,67 358,60 357,54 359,52ZM328,77 329,80 326,81 325,79ZM355,51 358,56 356,59 354,59 355,64 353,65 352,62 349,60 352,53ZM357,47 359,49 358,51 355,49ZM309,37 315,38 316,35 321,34 313,35 312,32 311,36ZM311,28 308,31 307,35 302,37 306,38Z"/></svg>